# xmcd CD database file
# Copyright (C) 1993-1996 Ti Kan
#
# Track frame offsets:
#  150
#  12106
#  26093
#  37204
#  50142
#  67720
#  89257
#  103404
#  118038
#  129678
#  141271
#  155518
#
# Disc length: 2244 seconds
#
# Revision: 2
# Processed by: cddbd v1.5.2PL0 Copyright (c) Steve Scherf et al.
# Submitted via: Advanced CD Ripper Pro 2.0
#
DISCID=ab08c20c
DTITLE=The Dixie Aces - Just Live
DYEAR=2007
DGENRE=Rock and Roll
TTITLE0=Rock Your Baby
TTITLE1=One Sweet Letter
TTITLE2=Have You Ever Seen The Rain
TTITLE3=Johnny Guitar
TTITLE4=Masquerade Of A Fool
TTITLE5=Walk Of Life
TTITLE6=The Right Place
TTITLE7=Since I Met You Baby
TTITLE8=I Walk The Line  (Revisted)
TTITLE9=Rock Around The Clock
TTITLE10=Rose Garden
TTITLE11=La Comparsa
EXTD=
EXTT0=
EXTT1=
EXTT2=
EXTT3=
EXTT4=
EXTT5=
EXTT6=
EXTT7=
EXTT8=
EXTT9=
EXTT10=
EXTT11=
PLAYORDER=
